#N canvas -1822 383 1302 777 24;
#X msg 236 806 all \$1;
#X obj 236 843 clone sound_player 18;
#X obj 285 94 tgl 40 0 empty empty empty 17 7 0 10 -262144 -1 -1 0
1;
#X obj 313 155 metro 300;
#X floatatom 422 112 5 0 0 0 - - -;
#X text 540 114 trigger speed;
#X obj 856 92 random 4;
#X obj 855 164 * 100;
#X obj 984 146 + 1, f 2;
#X obj 376 527 + 1;
#X floatatom 341 577 5 0 0 0 - - -;
#X msg 363 479 1;
#X obj 352 630 % 18;
#X floatatom 245 759 5 0 0 0 - - -;
#X text 427 628 modulo (range of looping numbers);
#X text 438 479 unit of counting;
#X msg 37 101 \; pd dsp 1;
#X obj 28 36 loadbang;
#N canvas 0 22 450 278 (subpatch) 0;
#X array sequencer 16 float 3;
#A 0 8.22857 10.8 4.37147 4.88576 4.75718 4.75718 5.52861 5.78575 5.78575
5.1429 4.50004 4.11433 3.47148 3.08577 12.3429 8.35714;
#X coords 0 18 16 0 200 140 1 0 0;
#X restore 920 380 graph;
#X obj 346 673 tabread sequencer;
#X obj 350 715 i;
#X obj 282 277 adc~;
#X obj 284 334 bonk~;
#X obj 521 208 vsl 15 128 0 127 0 0 empty empty empty 0 -9 0 10 -262144
-1 -1 12700 1;
#X msg 527 342 minvel \$1;
#X text 563 252 threshold control;
#X obj 344 388 unpack f f;
#X obj 352 430 t b;
#X floatatom 483 432 5 0 0 0 - - -;
#X obj 184 403 fiddle~;
#X floatatom 693 333 5 0 0 0 - - -;
#X connect 0 0 1 0;
#X connect 2 0 3 0;
#X connect 4 0 3 1;
#X connect 6 0 8 0;
#X connect 8 0 7 0;
#X connect 9 0 10 0;
#X connect 10 0 9 1;
#X connect 10 0 12 0;
#X connect 11 0 9 0;
#X connect 12 0 19 0;
#X connect 13 0 0 0;
#X connect 17 0 16 0;
#X connect 19 0 20 0;
#X connect 20 0 13 0;
#X connect 21 0 22 0;
#X connect 21 1 22 0;
#X connect 22 1 26 0;
#X connect 23 0 24 0;
#X connect 24 0 22 0;
#X connect 26 0 27 0;
#X connect 26 1 28 0;
#X connect 27 0 11 0;
